<svg width="108" height="112" viewBox="0 0 108 112" fill="none" xmlns="http://www.w3.org/2000/svg">
<g clip-path="url(#clip0_314_6)">
<path d="M49.3992 2.70145C51.5329 1.10069 54.4671 1.10069 56.6008 2.70145L72.2794 14.4642L88.3114 25.7406C90.4931 27.2751 91.3999 30.0657 90.5368 32.5896L84.1947 51.1358L78.4244 69.8677C77.6391 72.4169 75.2653 74.1416 72.5983 74.1006L53 73.8L33.4017 74.1006C30.7347 74.1416 28.3609 72.4169 27.5756 69.8677L21.8053 51.1358L15.4632 32.5896C14.6001 30.0657 15.5069 27.2751 17.6886 25.7406L33.7206 14.4642L49.3992 2.70145Z" fill="url(#paint0_linear_314_6)"/>
<path d="M69.6615 23.9271L56.7187 62H47.9167L35 23.9271H43.151L50.3125 46.5833C50.434 46.9653 50.6337 47.6858 50.9115 48.7448C51.1892 49.7865 51.467 50.8976 51.7448 52.0781C52.0399 53.2413 52.2396 54.2049 52.3437 54.9688C52.4479 54.2049 52.6302 53.2413 52.8906 52.0781C53.1684 50.9149 53.4375 49.8125 53.6979 48.7708C53.9757 47.7118 54.1753 46.9826 54.2969 46.5833L61.5104 23.9271H69.6615Z" fill="white"/>
<path d="M8.01847 85.7273L14.0753 104.045H14.3139L20.3594 85.7273H24.9957L16.7912 109H11.5866L3.39347 85.7273H8.01847ZM33.7315 109.341C31.9815 109.341 30.4702 108.977 29.1974 108.25C27.9323 107.515 26.9588 106.477 26.277 105.136C25.5952 103.788 25.2543 102.201 25.2543 100.375C25.2543 98.5795 25.5952 97.0038 26.277 95.6477C26.9664 94.2841 27.9285 93.2235 29.1634 92.4659C30.3982 91.7008 31.849 91.3182 33.5156 91.3182C34.5914 91.3182 35.6065 91.4924 36.5611 91.8409C37.5232 92.1818 38.3717 92.7121 39.1065 93.4318C39.849 94.1515 40.4323 95.0682 40.8565 96.1818C41.2808 97.2879 41.4929 98.6061 41.4929 100.136V101.398H27.1861V98.625H37.5497C37.5421 97.8371 37.3717 97.1364 37.0384 96.5227C36.705 95.9015 36.2391 95.4129 35.6406 95.0568C35.0497 94.7008 34.3603 94.5227 33.5724 94.5227C32.7315 94.5227 31.9929 94.7273 31.3565 95.1364C30.7202 95.5379 30.224 96.0682 29.8679 96.7273C29.5194 97.3788 29.3414 98.0947 29.3338 98.875V101.295C29.3338 102.311 29.5194 103.182 29.8906 103.909C30.2618 104.629 30.7808 105.182 31.4474 105.568C32.1141 105.947 32.8944 106.136 33.7884 106.136C34.3868 106.136 34.9285 106.053 35.4134 105.886C35.8982 105.712 36.3187 105.458 36.6747 105.125C37.0308 104.792 37.2997 104.379 37.4815 103.886L41.3224 104.318C41.08 105.333 40.6179 106.22 39.9361 106.977C39.2618 107.727 38.3982 108.311 37.3452 108.727C36.2921 109.136 35.0876 109.341 33.7315 109.341ZM49.0866 85.7273V109H44.973V85.7273H49.0866ZM62.0327 91.5455V94.7273H51.9986V91.5455H62.0327ZM54.4759 87.3636H58.5895V103.75C58.5895 104.303 58.6728 104.727 58.8395 105.023C59.0137 105.311 59.241 105.508 59.5213 105.614C59.8016 105.72 60.1122 105.773 60.4531 105.773C60.7107 105.773 60.9455 105.754 61.1577 105.716C61.3774 105.678 61.544 105.644 61.6577 105.614L62.3509 108.83C62.1312 108.905 61.8168 108.989 61.4077 109.08C61.0062 109.17 60.5137 109.223 59.9304 109.239C58.9001 109.269 57.9721 109.114 57.1463 108.773C56.3205 108.424 55.6652 107.886 55.1804 107.159C54.7031 106.432 54.4683 105.523 54.4759 104.432V87.3636ZM65.473 109V91.5455H69.4616V94.4545H69.6435C69.9616 93.447 70.5071 92.6705 71.2798 92.125C72.0601 91.572 72.9503 91.2955 73.9503 91.2955C74.1776 91.2955 74.4313 91.3068 74.7116 91.3295C74.9995 91.3447 75.2382 91.3712 75.4276 91.4091V95.1932C75.2533 95.1326 74.9768 95.0795 74.598 95.0341C74.2268 94.9811 73.867 94.9545 73.5185 94.9545C72.7685 94.9545 72.0942 95.1174 71.4957 95.4432C70.9048 95.7614 70.4389 96.2045 70.098 96.7727C69.7571 97.3409 69.5866 97.9962 69.5866 98.7386V109H65.473ZM78.1605 109V91.5455H82.2741V109H78.1605ZM80.2287 89.0682C79.5772 89.0682 79.0166 88.8523 78.5469 88.4205C78.0772 87.9811 77.8423 87.4545 77.8423 86.8409C77.8423 86.2197 78.0772 85.6932 78.5469 85.2614C79.0166 84.822 79.5772 84.6023 80.2287 84.6023C80.8878 84.6023 81.4484 84.822 81.9105 85.2614C82.3802 85.6932 82.6151 86.2197 82.6151 86.8409C82.6151 87.4545 82.3802 87.9811 81.9105 88.4205C81.4484 88.8523 80.8878 89.0682 80.2287 89.0682ZM89.8679 91.5455L93.3906 97.9886L96.9702 91.5455H101.322L96.0611 100.273L101.413 109H97.0838L93.3906 102.716L89.7315 109H85.3679L90.6861 100.273L85.5043 91.5455H89.8679Z" fill="white"/>
</g>
<defs>
<linearGradient id="paint0_linear_314_6" x1="12" y1="20.91" x2="87.85" y2="63.96" gradientUnits="userSpaceOnUse">
<stop stop-color="#20E863"/>
<stop offset="1" stop-color="#118C8A"/>
</linearGradient>
<clipPath id="clip0_314_6">
<rect width="108" height="112" fill="white"/>
</clipPath>
</defs>
</svg>
