<svg width="82" height="75" viewBox="0 0 82 75" fill="none" xmlns="http://www.w3.org/2000/svg">
<g clip-path="url(#clip0_314_7)">
<path d="M37.3992 2.70145C39.5329 1.10069 42.4671 1.10069 44.6008 2.70145L60.2794 14.4642L76.3114 25.7406C78.4931 27.2751 79.3999 30.0657 78.5368 32.5896L72.1947 51.1358L66.4244 69.8677C65.6391 72.4169 63.2653 74.1416 60.5983 74.1006L41 73.8L21.4017 74.1006C18.7347 74.1416 16.3609 72.4169 15.5756 69.8677L9.80535 51.1358L3.46322 32.5896C2.60014 30.0657 3.50687 27.2751 5.68861 25.7406L21.7206 14.4642L37.3992 2.70145Z" fill="url(#paint0_linear_314_7)"/>
<path d="M58.6615 23.9271L45.7187 62H36.9167L24 23.9271H32.151L39.3125 46.5833C39.434 46.9653 39.6337 47.6858 39.9115 48.7448C40.1892 49.7865 40.467 50.8976 40.7448 52.0781C41.0399 53.2413 41.2396 54.2049 41.3437 54.9688C41.4479 54.2049 41.6302 53.2413 41.8906 52.0781C42.1684 50.9149 42.4375 49.8125 42.6979 48.7708C42.9757 47.7118 43.1753 46.9826 43.2969 46.5833L50.5104 23.9271H58.6615Z" fill="white"/>
</g>
<defs>
<linearGradient id="paint0_linear_314_7" x1="1.36852e-07" y1="20.91" x2="75.85" y2="63.96" gradientUnits="userSpaceOnUse">
<stop stop-color="#20E863"/>
<stop offset="1" stop-color="#118C8A"/>
</linearGradient>
<clipPath id="clip0_314_7">
<rect width="82" height="75" fill="white"/>
</clipPath>
</defs>
</svg>
